<svg width="600" height="400" viewBox="0 0 600 400" xmlns="http://www.w3.org/2000/svg">
  <!-- Background -->
  <rect width="600" height="400" fill="#f5f9ff" rx="20" ry="20"/>
  
  <!-- Laptop -->
  <rect x="200" y="150" width="200" height="120" fill="#2962FF" rx="10" ry="10"/>
  <rect x="210" y="160" width="180" height="100" fill="#FFFFFF" rx="5" ry="5"/>
  <rect x="180" y="270" width="240" height="10" fill="#2962FF" rx="5" ry="5"/>
  
  <!-- Code elements on screen -->
  <rect x="220" y="170" width="100" height="10" fill="#E0E0E0" rx="2" ry="2"/>
  <rect x="220" y="190" width="140" height="10" fill="#E0E0E0" rx="2" ry="2"/>
  <rect x="220" y="210" width="120" height="10" fill="#E0E0E0" rx="2" ry="2"/>
  <rect x="220" y="230" width="80" height="10" fill="#E0E0E0" rx="2" ry="2"/>
  
  <!-- Decorative elements -->
  <circle cx="150" cy="130" r="30" fill="#FF6D00" opacity="0.7"/>
  <circle cx="450" cy="280" r="40" fill="#2962FF" opacity="0.5"/>
  <circle cx="500" cy="120" r="25" fill="#FF6D00" opacity="0.3"/>
  <circle cx="100" cy="250" r="20" fill="#2962FF" opacity="0.6"/>
  
  <!-- Abstract lines -->
  <path d="M50,350 Q150,300 250,350 T450,300" stroke="#2962FF" stroke-width="3" fill="none"/>
  <path d="M100,100 Q200,50 300,100 T500,50" stroke="#FF6D00" stroke-width="3" fill="none"/>
</svg> 